# xmcd CD database file
#
# Track frame offsets:
#	182
#	16687
#	30265
#	43642
#	53377
#	76990
#	95535
#	106735
#	120757
#	135457
#	151945
#	167907
#	184202
#	205607
#	227070
#	241257
#	260157
#	284807
#	299390
#	317512
#
# Disc length: 4422 seconds
#
# Revision: 2
# Processed by: cddbd v1.5.2PL0 Copyright (c) Steve Scherf et al.
# Submitted via: CDex 1.51
#
DISCID=fd114414
DTITLE=Denver, John - Gold Collection
DYEAR=1997
DGENRE=Country
TTITLE0=Leaving, On A Jet Plane
TTITLE1=Annie's Song
TTITLE2=Perhaps Love
TTITLE3=The Eagle And The Hawk
TTITLE4=Sunshine On My Shoulders
TTITLE5=Poems, Prayers And Promises
TTITLE6=Follow Me
TTITLE7=Starwood In Aspen
TTITLE8=Rhymes and Reasons
TTITLE9=Goodbye Again
TTITLE10=I'm Sorry
TTITLE11=Calypso
TTITLE12=Rocky Mountain High
TTITLE13=Back Home Again
TTITLE14=Thank God I'm A Country Boy
TTITLE15=Fly Away
TTITLE16=Sweet Surrender
TTITLE17=Shanghai Breezes
TTITLE18=Some Days Are Diamonds (Some Days Are Stone)
TTITLE19=Take Me Home Country Roads
EXTD=YEAR: 1997
EXTT0=
EXTT1=
EXTT2=
EXTT3=
EXTT4=
EXTT5=
EXTT6=
EXTT7=
EXTT8=
EXTT9=
EXTT10=
EXTT11=
EXTT12=
EXTT13=
EXTT14=
EXTT15=
EXTT16=
EXTT17=
EXTT18=
EXTT19=
PLAYORDER=
